Coordinates
version=1
nRows=24
nColumns=22
inDegrees=yes

Units are S.I. units (second, meters, Newtons, ...)
If the header above contains a line with 'inDegrees', this indicates whether rotational values are in degrees (yes) or radians (no).

endheader
time	pelvis_tilt	pelvis_list	pelvis_rotation	pelvis_tx	pelvis_ty	pelvis_tz	hip_flexion_r	hip_adduction_r	hip_rotation_r	knee_angle_r	ankle_angle_r	subtalar_angle_r	hip_flexion_l	hip_adduction_l	hip_rotation_l	knee_angle_l	ankle_angle_l	subtalar_angle_l	lumbar_extension	lumbar_bending	lumbar_rotation
      4.06000000	     -5.41735531	     -3.73229793	    -47.46803195	      0.86475048	      0.85695591	      0.82672169	     -4.20622223	      7.28303319	      6.14147468	    -18.89889246	     24.40807604	     -5.06562385	     29.77095682	    -16.86525139	     -1.00402131	    -13.93182778	      5.41162491	      6.96323033	     -2.42012453	      7.62687504	     23.24417321
      4.07000000	     -5.50705888	     -3.86675156	    -47.81331728	      0.87244022	      0.85490325	      0.83165735	     -4.78527619	      7.21345542	      6.43942937	    -19.17721160	     24.82442899	     -4.92409952	     29.89854844	    -17.11508391	     -0.72309964	    -12.40580494	      5.27243424	      7.19600520	     -2.43768933	      7.71963361	     23.44477224
      4.08000000	     -5.58960776	     -3.97729836	    -48.15608675	      0.88026425	      0.85284526	      0.83661038	     -5.33974020	      7.10795150	      6.75381446	    -19.48559329	     25.18632126	     -4.78372920	     30.06367154	    -17.35045715	     -0.63146088	    -11.13954489	      5.16787469	      7.32008558	     -2.43363826	      7.78766960	     23.64138571
      4.09000000	     -5.68060112	     -4.08267576	    -48.48838733	      0.88821511	      0.85077824	      0.84155299	     -5.85789616	      6.99679550	      7.07620698	    -19.85180291	     25.52876909	     -4.65653720	     30.28114773	    -17.58488512	     -0.70568705	    -10.15838660	      5.09738114	      7.36358830	     -2.41745169	      7.86014736	     23.79446054
      4.10000000	     -5.74703034	     -4.16498479	    -48.83691835	      0.89632890	      0.84875102	      0.84654976	     -6.37014316	      6.83339124	      7.43928148	    -20.24237006	     25.82500265	     -4.47826893	     30.49721788	    -17.79297172	     -0.96220580	     -9.43821222	      5.13630239	      7.36881547	     -2.39247886	      7.89439549	     23.95581544
      4.11000000	     -5.81946565	     -4.23005840	    -49.18020968	      0.90462591	      0.84673293	      0.85154644	     -6.85429156	      6.64735983	      7.81225942	    -20.66078542	     26.06965963	     -4.27427845	     30.74337107	    -17.98362054	     -1.31286992	     -8.98036373	      5.24216847	      7.31469140	     -2.34119506	      7.92496624	     24.09500441
      4.12000000	     -5.89959622	     -4.27740452	    -49.52852101	      0.91310659	      0.84473439	      0.85655928	     -7.31318394	      6.43995276	      8.21108212	    -21.10028346	     26.25254431	     -4.02992558	     30.99845286	    -18.16170336	     -1.72300617	     -8.75595583	      5.40206023	      7.19135700	     -2.26195496	      7.95423597	     24.22222881
      4.13000000	     -5.98947909	     -4.31516236	    -49.87269387	      0.92178645	      0.84276001	      0.86156412	     -7.75678030	      6.21902833	      8.63862464	    -21.54989983	     26.37520129	     -3.75047023	     31.25079688	    -18.32567087	     -2.12814680	     -8.74562364	      5.59958866	      6.99460556	     -2.16221287	      7.99173297	     24.32709893
      4.14000000	     -6.07633475	     -4.34819066	    -50.19471831	      0.93070259	      0.84082346	      0.86653780	     -8.20744634	      5.97046635	      9.03834569	    -21.98758287	     26.46058776	     -3.26643805	     31.49453794	    -18.45661860	     -2.50043268	     -8.94847194	      5.78667386	      6.59545453	     -2.05275387	      8.03095050	     24.39212062
      4.15000000	     -6.18758709	     -4.38848144	    -50.52692213	      0.93980264	      0.83892439	      0.87155868	     -8.66919005	      5.73689068	      9.49930159	    -22.39251304	     26.42072668	     -3.05524896	     31.71291567	    -18.60295520	     -2.82835877	     -9.32602786	      6.02406862	      6.37349429	     -1.92473883	      8.09983458	     24.47286056
      4.16000000	     -6.29842495	     -4.41888782	    -50.83905524	      0.94912323	      0.83707451	      0.87653760	     -9.12482209	      5.47452986	      9.93418069	    -22.79236973	     26.32736138	     -2.55135202	     31.89435795	    -18.70799022	     -3.10102820	     -9.83025440	      6.13429335	      5.86282906	     -1.78448536	      8.17119098	     24.50930811
      4.17000000	     -6.40110455	     -4.43513542	    -51.11131414	      0.95871602	      0.83525873	      0.88151032	     -9.60617143	      5.17796132	     10.32264544	    -23.13324406	     26.13778702	     -2.08074885	     32.05607295	    -18.75493920	     -3.26968876	    -10.48739936	      6.22781724	      5.43442050	     -1.62161668	      8.22740730	     24.51186757
      4.18000000	     -6.50621819	     -4.43787939	    -51.36351459	      0.96849235	      0.83348483	      0.88644398	    -10.07549216	      4.86289100	     10.70784333	    -23.46661946	     25.87920017	     -1.58839472	     32.19475033	    -18.76103308	     -3.36504550	    -11.24954300	      6.16619813	      5.06685067	     -1.44357014	      8.28276520	     24.48096408
      4.19000000	     -6.59696534	     -4.39849400	    -51.57415718	      0.97847979	      0.83174610	      0.89132920	    -10.52377706	      4.49554685	     11.04062463	    -23.78130763	     25.53826652	     -1.04089201	     32.33873153	    -18.68512432	     -3.37970955	    -12.12162191	      5.89980608	      4.79199119	     -1.23028248	      8.29776340	     24.40680861
      4.20000000	     -6.68694001	     -4.32248548	    -51.76539154	      0.98858051	      0.83005524	      0.89616925	    -10.92740602	      4.10173907	     11.37310869	    -24.10808716	     25.12133691	     -0.51096391	     32.51272996	    -18.55983497	     -3.33705503	    -13.10877545	      5.35168646	      4.67193930	     -0.98661040	      8.28488789	     24.32052447
      4.21000000	     -6.72278805	     -4.17734739	    -51.88703117	      0.99887826	      0.82842380	      0.90091375	    -11.28622266	      3.61691447	     11.60709203	    -24.46431551	     24.65428318	      0.08887258	     32.72504801	    -18.29979632	     -3.22476712	    -14.20486765	      4.50442200	      4.71743578	     -0.71262689	      8.17341880	     24.15118126
      4.22000000	     -6.71632187	     -3.98480267	    -51.98311409	      1.00929091	      0.82692135	      0.90560526	    -11.61546404	      3.07412546	     11.86021593	    -24.83652543	     24.07526274	      0.69782415	     32.98489579	    -17.96110735	     -3.11338104	    -15.43491170	      3.43256623	      4.94040857	     -0.42940732	      7.99088660	     23.95907811
      4.23000000	     -6.64546115	     -3.73054454	    -52.02836924	      1.01980885	      0.82556257	      0.91020525	    -11.88710529	      2.45522062	     12.06335217	    -25.28151867	     23.41854198	      1.27264247	     33.30540624	    -17.50880389	     -2.97137933	    -16.79500600	      2.16846534	      5.31348155	     -0.14013532	      7.70175640	     23.73166550
      4.24000000	     -6.48678827	     -3.42684744	    -52.02048109	      1.03042482	      0.82442801	      0.91471726	    -12.12471787	      1.75725026	     12.23061171	    -25.80510295	     22.65398097	      1.83022903	     33.66366329	    -16.93669924	     -2.82937546	    -18.28953401	      0.87855903	      5.78116464	      0.12591122	      7.29454110	     23.46159820
      4.25000000	     -6.22399494	     -3.08530111	    -51.95372418	      1.04112404	      0.82358371	      0.91915282	    -12.34272836	      0.98357225	     12.34957796	    -26.42186726	     21.76607273	      2.33598319	     34.03153745	    -16.23936500	     -2.70698709	    -19.91110630	     -0.27813252	      6.24321882	      0.34608848	      6.75978395	     23.13753565
      4.26000000	     -5.85866064	     -2.72287300	    -51.81522835	      1.05187823	      0.82309068	      0.92352506	    -12.55730936	      0.15332253	     12.37138112	    -27.12366908	     20.72669434	      2.64757791	     34.37246503	    -15.41742754	     -2.56644938	    -21.60971866	     -1.21329676	      6.53753301	      0.50788480	      6.10157366	     22.80093461
      4.27000000	     -5.41069042	     -2.35423080	    -51.62814874	      1.06263015	      0.82298538	      0.92786122	    -12.75544713	     -0.70138917	     12.35362898	    -27.92794207	     19.50062842	      3.04473440	     34.65224130	    -14.51078986	     -2.46943231	    -23.33357012	     -1.79879076	      6.78798827	      0.60855800	      5.35283275	     22.41820295
      4.28000000	     -4.90903951	     -2.00527164	    -51.39371295	      1.07333896	      0.82329518	      0.93215499	    -12.93666064	     -1.53876754	     12.26713828	    -28.82228441	     18.06242728	      3.41091669	     34.83539494	    -13.54899060	     -2.37668387	    -25.00770614	     -2.03618833	      6.87734464	      0.64463364	      4.55483360	     22.02407006
      4.29000000	     -4.37263600	     -1.68488509	    -51.13168169	      1.08398461	      0.82401400	      0.93637433	    -13.08456091	     -2.34803072	     12.11019775	    -29.80605621	     16.41949232	      3.82610320	     34.88999240	    -12.55174491	     -2.29372354	    -26.56396257	     -1.94531274	      6.73680129	      0.61892112	      3.74013742	     21.67153122
